<?xml version="1.0" encoding="UTF-8"?>
<svg height="16px" viewBox="0 0 16 16" width="16px" xmlns="http://www.w3.org/2000/svg">
    <g fill="#241f31">
        <path d="m 2.109375 9.140625 v 2.304687 h 1.644531 v -4.605468 h -1.644531 z m 0 0"/>
        <path d="m 6.40625 9.140625 v 2.304687 h 1.644531 v -4.605468 h -1.644531 z m 0 0"/>
        <path d="m 1.003906 13.476562 v 0.90625 h 1.105469 v 0.542969 h 5.941406 v -0.578125 h 1.039063 v -1.777344 h -1.644532 v 0.617188 h -4.765624 v -0.617188 h -1.675782 z m 0 0"/>
    </g>
    <path d="m 13.761719 0.921875 l -0.933594 0.730469 l 0.621094 0.074218 c 0.058593 0.007813 0.105469 0.035157 0.140625 0.078126 l 0.726562 0.929687 c 0.03125 0.042969 0.046875 0.097656 0.042969 0.15625 l -0.082031 0.660156 l 0.96875 -0.757812 l 0.097656 -0.808594 l -0.75 -0.960937 z m -1.402344 1.09375 l -3.269531 2.554687 l -0.207032 1.664063 l 1.6875 0.207031 l 3.238282 -2.527344 l 0.121094 -0.992187 l -0.617188 -0.789063 z m 0 0" fill="#3d3846"/>
</svg>
