<?xml version="1.0" encoding="UTF-8"?>
<svg height="128px" viewBox="0 0 128 128" width="128px" xmlns="http://www.w3.org/2000/svg" xmlns:xlink="http://www.w3.org/1999/xlink">
    <linearGradient id="a" gradientTransform="matrix(0.232143 0 0 0.328947 -9.387054 265.357641)" gradientUnits="userSpaceOnUse" x1="88.595886" x2="536.595886" y1="-449.394012" y2="-449.394012">
        <stop offset="0" stop-color="#241f31"/>
        <stop offset="0.0384615" stop-color="#5e5c64"/>
        <stop offset="0.0768555" stop-color="#1e1f31"/>
        <stop offset="0.923077" stop-color="#1e1f31"/>
        <stop offset="0.961538" stop-color="#5e5c64"/>
        <stop offset="1" stop-color="#241f31"/>
    </linearGradient>
    <path d="m 19.179688 17.53125 h 88 c 4.417968 0 8 3.582031 8 8 v 84 c 0 4.417969 -3.582032 8 -8 8 h -88 c -4.417969 0 -8 -3.582031 -8 -8 v -84 c 0 -4.417969 3.582031 -8 8 -8 z m 0 0" fill="url(#a)"/>
    <path d="m 19.179688 13.53125 h 88 c 4.417968 0 8 3.582031 8 8 v 84 c 0 4.417969 -3.582032 8 -8 8 h -88 c -4.417969 0 -8 -3.582031 -8 -8 v -84 c 0 -4.417969 3.582031 -8 8 -8 z m 0 0" fill="#3d3846"/>
    <path d="m 85.585938 36.769531 c -13.574219 20.226563 -0.730469 22.117188 -0.921876 0.925781" fill="#241f31"/>
    <path d="m 106.507812 20.503906 l -4.105468 2.363282 l 2.425781 0.652343 c 0.214844 0.058594 0.394531 0.195313 0.511719 0.386719 l 2.34375 4.078125 c 0.113281 0.195313 0.140625 0.417969 0.082031 0.632813 l -0.691406 2.570312 l 4.253906 -2.449219 l 0.847656 -3.140625 l -2.433593 -4.222656 z m -6.15625 3.546875 l -14.363281 8.273438 l -1.742187 6.464843 l 6.5625 1.765626 l 14.210937 -8.183594 l 1.039063 -3.855469 l -2 -3.46875 z m 0 0" fill="#deddda"/>
    <g fill="#241f31">
        <path d="m 32.859375 56.417969 v 16.097656 h 11.492187 v -32.195313 h -11.492187 z m 0 0"/>
        <path d="m 62.886719 56.417969 v 16.097656 h 11.492187 v -32.195313 h -11.492187 z m 0 0"/>
        <path d="m 25.117188 86.714844 v 6.335937 h 7.742187 v 3.804688 h 41.519531 v -4.058594 h 7.273438 v -12.421875 h -11.496094 v 4.3125 h -33.308594 v -4.3125 h -11.730468 z m 0 0"/>
    </g>
</svg>
